<svg width="1440" height="252" viewBox="0 0 1440 252" fill="none" xmlns="http://www.w3.org/2000/svg">
<path d="M180.421 248.521L180.488 248.72H180.698H223.512H223.929L223.788 248.327L137.464 9.54389L137.394 9.35055H137.188H87.7606H87.555L87.4851 9.54389L1.16104 248.327L1.01914 248.72H1.43652H44.2505H44.4603L44.5278 248.521L62.9086 194.419H162.04L180.421 248.521ZM290.4 248.439L291.405 223.982C301.286 239.648 318.3 250.46 344.059 250.46C367.464 250.46 386.778 241.2 400.237 225.339C413.692 209.481 421.278 187.045 421.278 160.711C421.278 134.026 413.516 112.804 400.186 98.2497C386.854 83.6933 367.975 75.834 345.8 75.834C320.036 75.834 302.355 86.9852 291.792 101.992V1.28955V0.996619H291.499H249.033H248.74V1.28955V248.427V248.72H249.033H290.107H290.388L290.4 248.439ZM764.166 77.5744H763.873V77.8673V174.634C763.873 186.406 760.151 196.079 753.986 202.804C747.822 209.529 739.199 213.326 729.358 213.326C718.804 213.326 710.797 210.041 705.426 204.154C700.051 198.263 697.279 189.727 697.279 179.159V77.8673V77.5744H696.986H654.52H654.227V77.8673V188.209C654.227 206.189 659.377 221.755 669.401 232.829C679.429 243.908 694.306 250.46 713.694 250.46C737.087 250.46 754.066 239.96 764.271 224.618L765.614 248.443L765.629 248.72H765.906H806.632H806.924V248.427V77.8673V77.5744H806.632H764.166ZM956.781 210.475L956.765 210.052L956.375 210.216C949.807 212.982 942.886 214.022 935.256 214.022C923.464 214.022 915.634 211.161 910.749 206.276C905.865 201.392 903.873 194.432 903.873 186.12V112.272H955.444H955.737V111.979V77.8673V77.5744H955.444H903.873V28.7879V28.495H903.58H863.551H863.258V28.7879V77.5744H835.704H835.412V77.8673V112.327V112.62H835.704H860.821V187.165C860.821 206.2 867.023 222.033 878.665 233.106C890.305 244.178 907.353 250.46 928.99 250.46C941.198 250.46 952.029 248.368 957.992 245.913L958.182 245.835L958.174 245.631L956.781 210.475ZM1218.07 9.35055H1217.78V9.64349V154.097C1217.78 173.718 1212.83 188.516 1203.54 198.407C1194.26 208.296 1180.59 213.326 1163.07 213.326C1145.37 213.326 1131.63 208.296 1122.3 198.407C1112.97 188.515 1108.02 173.718 1108.02 154.097V9.64349V9.35055H1107.73H1065.26H1064.97V9.64349V154.097C1064.97 184.264 1073.95 208.451 1090.73 225.096C1107.5 241.741 1132.04 250.808 1163.07 250.808C1193.07 250.808 1217.51 241.739 1234.46 225.097C1251.41 208.454 1260.83 184.268 1260.83 154.097V9.64349V9.35055H1260.53H1218.07ZM1398.51 129.404L1398.53 129.676H1398.8H1436.04H1436.34L1436.34 129.377C1435.99 112.424 1429.95 99.0225 1418.61 89.8657C1407.27 80.7157 1390.66 75.834 1369.21 75.834C1347.42 75.834 1329.77 80.6278 1317.57 89.2891C1305.35 97.9577 1298.61 110.49 1298.61 125.902C1298.61 143.042 1304.8 154.243 1314.1 161.921C1323.39 169.585 1335.76 173.72 1348.08 176.789C1352.25 177.827 1356.42 178.746 1360.47 179.637C1362.4 180.063 1364.31 180.482 1366.17 180.905C1371.94 182.217 1377.31 183.566 1381.91 185.259C1386.51 186.952 1390.32 188.98 1392.97 191.635C1395.61 194.28 1397.11 197.557 1397.11 201.784C1397.11 207.075 1394.82 211.33 1389.82 214.28C1384.79 217.243 1377.02 218.895 1366.08 218.895C1354.44 218.895 1346.25 216.896 1340.84 213.118C1335.44 209.35 1332.78 203.785 1332.26 196.542L1332.24 196.272L1331.97 196.27L1295.07 195.922L1294.77 195.919L1294.78 196.218C1294.95 213.519 1300.9 227.099 1312.77 236.345C1324.64 245.581 1342.38 250.46 1366.08 250.46C1388.74 250.46 1406.99 245.755 1419.54 237.182C1432.11 228.601 1438.95 216.154 1438.77 200.737C1438.77 183.081 1432.58 171.576 1423.28 163.744C1413.99 155.926 1401.62 151.791 1389.3 148.809C1384.82 147.726 1380.35 146.794 1376.03 145.894C1374.4 145.553 1372.78 145.217 1371.2 144.879C1365.43 143.647 1360.06 142.39 1355.46 140.794C1350.86 139.198 1347.06 137.272 1344.41 134.718C1341.77 132.173 1340.27 128.996 1340.27 124.858C1340.27 119.559 1342.48 115.215 1347.14 112.181C1351.81 109.136 1358.97 107.399 1368.86 107.399C1377.88 107.399 1385.03 109.22 1390.05 112.869C1395.07 116.509 1397.99 121.993 1398.51 129.404ZM75.2913 159.025L112.474 50.2305L149.657 159.025H75.2913ZM336.054 214.022C307.02 214.022 291.792 189.835 291.792 168.02V157.926C291.792 137.154 306.673 112.272 336.402 112.272C349.026 112.272 359.384 117.111 366.59 125.742C373.802 134.379 377.878 146.837 377.878 162.103C377.878 177.716 373.628 190.699 366.283 199.772C358.942 208.841 348.496 214.022 336.054 214.022ZM533.992 75.834C507.988 75.834 486.242 85.0853 470.997 100.811C455.752 116.535 447.027 138.715 447.027 164.539C447.027 190.192 455.753 211.677 471.001 226.75C486.248 241.822 507.994 250.46 533.992 250.46C560.168 250.46 581.914 241.384 597.117 225.876C612.318 210.369 620.957 188.45 620.957 162.799C620.957 136.801 612.319 115.055 597.115 99.8071C581.911 84.5595 560.165 75.834 533.992 75.834ZM533.992 111.576C547.309 111.576 558.102 116.847 565.571 125.958C573.046 135.074 577.209 148.056 577.209 163.495C577.209 178.76 573.046 191.567 565.573 200.553C558.104 209.532 547.31 214.718 533.992 214.718C520.848 214.718 510.054 209.533 502.541 200.552C495.024 191.566 490.775 178.758 490.775 163.495C490.775 148.057 495.025 135.075 502.543 125.958C510.056 116.847 520.85 111.576 533.992 111.576Z" stroke="white" stroke-opacity="0.5" stroke-width="0.585863"/>
</svg>
