<svg width="41" height="41" viewBox="0 0 41 41" fill="none" xmlns="http://www.w3.org/2000/svg">
<path d="M10.2503 22.2082C9.30684 22.2082 8.54199 21.4433 8.54199 20.4998C8.54199 19.5564 9.30684 18.7915 10.2503 18.7915L30.7503 18.7915C31.6938 18.7915 32.4587 19.5564 32.4587 20.4998C32.4587 21.4433 31.6938 22.2082 30.7503 22.2082L10.2503 22.2082Z" fill="#227EFF"/>
<path d="M19.2922 11.4578C18.625 10.7907 18.625 9.70901 19.2922 9.04186C19.9593 8.37472 21.041 8.37472 21.7081 9.04186L31.9581 19.2919C32.6049 19.9386 32.6275 20.98 32.0095 21.6542L22.6136 31.9042C21.9761 32.5997 20.8955 32.6467 20.2 32.0091C19.5045 31.3716 19.4575 30.291 20.095 29.5955L28.3856 20.5512L19.2922 11.4578Z" fill="#227EFF"/>
</svg>
