<svg width="96" height="96" viewBox="0 0 96 96" fill="none" xmlns="http://www.w3.org/2000/svg">
<path d="M53.625 96H42.375C41.628 96 40.9138 95.7034 40.3866 95.1759L35.5854 90.375H2.8125C1.25794 90.375 0 89.1171 0 87.5625V30.9375C0 29.3829 1.25794 28.125 2.8125 28.125H14.25C15.8046 28.125 17.0625 29.3829 17.0625 30.9375V73.5H42.375C44.5339 73.5 46.5058 74.3158 48 75.6533C49.4942 74.3156 51.4661 73.5 53.625 73.5H78.9375V30.9375C78.9375 29.3829 80.1954 28.125 81.75 28.125H93.1875C94.7421 28.125 96 29.3829 96 30.9375V87.5625C96 89.1171 94.7421 90.375 93.1875 90.375H60.4146L55.6136 95.1759C55.0862 95.7034 54.372 96 53.625 96Z" fill="#FF641A"/>
<path d="M53.625 96C54.372 96 55.0862 95.7034 55.6134 95.1759L60.4146 90.375H93.1875C94.7421 90.375 96 89.1171 96 87.5625V30.9375C96 29.3829 94.7421 28.125 93.1875 28.125H81.75C80.1954 28.125 78.9375 29.3829 78.9375 30.9375V73.5H53.625C51.4661 73.5 49.4942 74.3158 48 75.6533V96H53.625Z" fill="#F03800"/>
<path d="M37.875 42.1312C31.8563 38.5312 28.3125 32.2313 28.3125 25.3125C28.3125 23.5125 28.5373 21.9377 28.9313 20.475C29.4165 18.5353 28.0408 16.875 26.2312 16.875H14.25C12.6748 16.875 11.4375 18.1123 11.4375 19.6875V76.3125C11.4375 77.8877 12.6748 79.125 14.25 79.125H42.375C43.9502 79.125 45.1875 80.3623 45.1875 81.9375C45.1875 83.5127 46.4248 84.75 48 84.75L53.625 67.083L48 52.3125C45.525 48.15 42.0375 44.6625 37.875 42.1312Z" fill="#FFF5F5"/>
<path d="M84.5625 19.6875V76.3125C84.5625 77.8877 83.3252 79.125 81.75 79.125H53.625C52.0498 79.125 50.8125 80.3623 50.8125 81.9375C50.8125 83.5127 49.5752 84.75 48 84.75V52.3125C50.4187 48.2064 53.9062 44.6625 58.125 42.1312C64.1437 38.5312 67.6875 32.2313 67.6875 25.3125C67.6875 23.5125 67.4627 21.9377 67.0688 20.475C66.5835 18.5353 67.9592 16.875 69.7688 16.875H81.75C83.3252 16.875 84.5625 18.1123 84.5625 19.6875V19.6875Z" fill="#EFE2DD"/>
<path d="M48.0988 61.6387C47.0248 61.6387 45.9427 61.2624 45.4731 60.2957C43.5148 54.4509 39.8535 49.8861 34.9701 46.9637C27.3896 42.3879 22.6875 34.0933 22.6875 25.3125C22.6875 23.0164 22.9594 20.9289 23.5224 18.9266C26.3486 7.81125 36.4204 0 48 0C59.5796 0 69.6514 7.81125 72.4941 18.9954C73.0406 20.9289 73.3125 23.0164 73.3125 25.3125C73.3125 34.0933 68.6104 42.3879 61.0408 46.9583C56.1463 49.8861 52.4852 54.4509 50.7274 59.8232C50.2577 60.7901 49.1756 61.6387 48.0988 61.6387Z" fill="#FED843"/>
<path d="M48.0988 61.6387C49.1754 61.6387 50.2577 60.7901 50.7274 59.8232C52.4852 54.4509 56.1463 49.8861 61.0408 46.9583C68.6104 42.3879 73.3125 34.0933 73.3125 25.3125C73.3125 23.0164 73.0406 20.9289 72.4941 18.9954C69.6514 7.81125 59.5796 0 48 0V61.6189C48.0343 61.6196 48.0645 61.6387 48.0988 61.6387Z" fill="#FABE2C"/>
<path d="M56.4375 19.6875C56.4375 23.2313 54.1873 26.4375 50.8687 27.6186C50.8687 29.1938 49.5752 30.7125 48 30.7125C46.4811 30.7125 45.1875 29.7 45.1875 28.1248C45.1875 25.7625 46.2562 23.7934 48 22.7811C48.2812 22.6125 48.6187 22.4436 48.9561 22.3309C50.0811 21.9375 50.8125 20.8688 50.8125 19.6873C50.8125 18.1121 49.5752 16.8748 48 16.8748C46.4248 16.8748 45.1875 18.1121 45.1875 19.6873C45.1875 21.2625 43.9502 22.4998 42.375 22.4998C40.7998 22.4998 39.5625 21.2625 39.5625 19.6873C39.5625 15.0184 43.3311 11.2498 48 11.2498C52.6689 11.2498 56.4375 15.0186 56.4375 19.6875V19.6875Z" fill="#474F54"/>
<path d="M48 39.375C49.5533 39.375 50.8125 38.1158 50.8125 36.5625C50.8125 35.0092 49.5533 33.75 48 33.75C46.4467 33.75 45.1875 35.0092 45.1875 36.5625C45.1875 38.1158 46.4467 39.375 48 39.375Z" fill="#474F54"/>
<path d="M50.8125 36.5625C50.8125 35.0092 49.5533 33.75 48 33.75V39.375C49.5533 39.375 50.8125 38.1158 50.8125 36.5625Z" fill="#32393F"/>
<path d="M56.4375 19.6875C56.4375 23.2313 54.1873 26.4375 50.8687 27.6186C50.8687 29.1938 49.5752 30.7125 48 30.7125V22.7813C48.2812 22.6127 48.6187 22.4438 48.9561 22.3311C50.0811 21.9377 50.8125 20.8689 50.8125 19.6875C50.8125 18.1123 49.5752 16.875 48 16.875V11.25C52.6689 11.25 56.4375 15.0186 56.4375 19.6875V19.6875Z" fill="#32393F"/>
</svg>
