<svg width="1418" height="272" viewBox="0 0 1418 272" fill="none" xmlns="http://www.w3.org/2000/svg">
<path d="M55.7782 136.596L55.7782 136.594C55.5855 109.242 63.2901 87.1182 76.0719 71.8378C88.8512 56.5602 106.718 48.1069 126.896 48.1069C148.066 48.1069 163.334 54.3598 173.886 64.24C184.441 74.1237 190.305 87.664 192.614 102.286L192.653 102.535H192.906H245.404H245.73L245.697 102.211C242.797 73.3971 231.964 48.1361 212.261 30.0788C192.557 12.0204 164.011 1.19475 125.738 1.19475C89.7623 1.19475 58.6083 14.639 36.4497 38.2491C14.292 61.8581 1.14567 95.6137 1.14567 136.21C1.14567 177.383 14.0977 211.236 36.16 234.798C58.2234 258.361 89.3781 271.611 125.738 271.611C164.59 271.611 193.04 260.592 212.552 242.485C232.062 224.379 242.603 199.215 245.697 170.984L245.733 170.657H245.404H192.906H192.65L192.614 170.909C190.497 185.533 184.921 198.974 174.512 208.759C164.107 218.541 148.841 224.699 127.282 224.699C106.908 224.699 89.0411 216.532 76.2637 201.449C63.4834 186.363 55.7782 164.336 55.7782 136.596ZM614.184 77.6263C585.557 77.6263 566.678 89.2946 555.367 106.716L553.873 79.835L553.858 79.5564H553.579H502.625H502.329V79.8514V269V269.295H502.625H555.509H555.804V269V163.231C555.804 151.521 559.546 141.755 566.144 134.919C572.74 128.084 582.214 124.152 593.725 124.152C604.851 124.152 613.156 127.794 618.687 134.373C624.224 140.961 627.013 150.534 627.013 162.459V269V269.295H627.308H680.193H680.488V269V150.493C680.488 129.211 674.683 110.992 663.479 98.0903C652.27 85.1825 635.682 77.6263 614.184 77.6263ZM844.262 222.667L844.247 222.26L843.865 222.401C836.558 225.093 829.258 226.629 821.192 226.629C809.076 226.629 800.769 223.648 795.488 218.415C790.208 213.183 787.903 205.648 787.903 196.429V122.222H843.967H844.262V121.927V79.8514V79.5564H843.967H787.903V26.1949V25.8999H787.608H737.812H737.517V26.1949V79.5564H706.93H706.635V79.8514V121.927V122.222H706.93H734.429V198.745C734.429 220.234 741.4 238.363 754.689 251.118C767.977 263.873 787.551 271.225 812.699 271.225C826.623 271.225 838.627 268.905 845.618 266.187L845.813 266.111L845.806 265.901L844.262 222.667ZM1059.06 225.358L1059.04 224.97L1058.67 225.103C1054.45 226.639 1052.55 227.015 1049.12 227.015C1046.49 227.015 1044.36 226.081 1042.88 224.231C1041.4 222.371 1040.54 219.551 1040.54 215.73V154.739C1040.54 130.744 1033.18 111.454 1018.87 98.1641C1004.57 84.8773 983.353 77.6263 955.704 77.6263C931.148 77.6263 910.523 83.5234 895.644 94.8158C880.759 106.114 871.649 122.793 870.1 144.295L870.077 144.611H870.394H918.26H918.522L918.553 144.351C919.509 136.318 923.139 129.83 929.007 125.346C934.878 120.859 943.013 118.362 953.002 118.362C964.916 118.362 973.809 121.628 979.722 127.303C985.634 132.977 988.606 141.095 988.606 150.879V159.076H964.582C938.702 159.076 913.846 162.454 895.45 171.653C886.247 176.254 878.652 182.316 873.358 190.148C868.063 197.982 865.081 207.57 865.081 219.204C865.081 234.913 870.708 247.932 881.592 257.019C892.47 266.1 908.565 271.225 929.455 271.225C949.576 271.225 963.625 266.484 973.426 260.274C983.133 254.123 988.654 246.541 991.776 240.737C995.084 251.105 1000.69 258.717 1008.04 263.743C1015.43 268.801 1024.56 271.225 1034.84 271.225C1045.67 271.225 1054.58 269.677 1061.95 267.351L1062.17 267.281L1062.15 267.048L1059.06 225.358ZM1262.77 195.692L1262.81 195.362H1262.48H1211.52H1211.27L1211.23 195.606C1209.69 204.45 1206.53 212.298 1200.89 217.934C1195.26 223.562 1187.14 227.015 1175.62 227.015C1163.16 227.015 1152.82 222.415 1145.6 213.612C1138.37 204.803 1134.23 191.752 1134.23 174.812C1134.23 157.487 1138.56 144.243 1145.93 135.337C1153.3 126.436 1163.74 121.836 1176.01 121.836C1186.94 121.836 1194.97 125.382 1200.65 131.157C1206.33 136.94 1209.69 144.983 1211.23 154.016L1211.27 154.262H1211.52H1262.48H1262.81L1262.77 153.935C1260.45 132.845 1252.51 113.763 1238.07 99.9524C1223.63 86.139 1202.71 77.6263 1174.46 77.6263C1146.98 77.6263 1123.45 87.5944 1106.8 104.737C1090.14 121.879 1080.37 146.178 1080.37 174.812C1080.37 203.055 1089.46 227.161 1105.68 244.209C1121.91 261.258 1145.25 271.225 1173.69 271.225C1201.93 271.225 1222.95 262.712 1237.54 248.997C1252.12 235.285 1260.25 216.397 1262.77 195.692ZM1416.13 222.667L1416.11 222.26L1415.73 222.401C1408.42 225.093 1401.12 226.629 1393.06 226.629C1380.94 226.629 1372.63 223.648 1367.35 218.415C1362.07 213.183 1359.77 205.648 1359.77 196.429V122.222H1415.83H1416.13V121.927V79.8514V79.5564H1415.83H1359.77V26.1949V25.8999H1359.47H1309.68H1309.38V26.1949V79.5564H1278.79H1278.5V79.8514V121.927V122.222H1278.79H1306.29V198.745C1306.29 220.234 1313.26 238.363 1326.55 251.118C1339.84 263.873 1359.42 271.225 1384.56 271.225C1398.49 271.225 1410.49 268.905 1417.48 266.187L1417.68 266.111L1417.67 265.901L1416.13 222.667ZM368.197 77.6263C339.174 77.6263 314.873 87.7856 297.828 105.122C280.783 122.457 271.011 146.95 271.011 175.584C271.011 204.026 280.784 227.941 297.831 244.746C314.878 261.551 339.179 271.225 368.197 271.225C397.604 271.225 422.002 261.067 439.048 243.778C456.094 226.491 465.768 202.094 465.768 173.654C465.768 145.213 456.093 121.201 439.046 104.299C421.998 87.3967 397.601 77.6263 368.197 77.6263ZM368.197 121.836C381.623 121.836 392.442 127.107 399.91 136.347C407.384 145.594 411.522 158.84 411.522 174.812C411.522 190.396 407.385 203.449 399.911 212.6C392.443 221.744 381.623 227.015 368.197 227.015C355.158 227.015 344.337 221.745 336.771 212.598C329.2 203.446 324.872 190.393 324.872 174.812C324.872 158.843 329.201 145.597 336.772 136.349C344.338 127.106 355.159 121.836 368.197 121.836ZM944.123 232.033C935.082 232.033 928.301 230.301 923.788 227.07C919.29 223.851 917.011 219.12 917.011 213.028C917.011 204.852 921.087 198.768 928.677 194.711C936.287 190.643 947.424 188.617 961.494 188.617H988.606V200.289C988.606 215.121 971.821 232.033 944.123 232.033Z" stroke="white" stroke-opacity="0.5" stroke-width="0.59"/>
</svg>
