<svg width="1189" height="276" viewBox="0 0 1189 276" fill="none" xmlns="http://www.w3.org/2000/svg">
<path d="M192.948 227.231H55.9496V156.683H175.498H175.719V156.462V112.044V111.824H175.498H55.9496V47.2246H190.569H190.789V47.0041V1V0.77944H190.569H1H0.77944V1V273.059V273.279H1H192.948H193.169V273.059V227.451V227.231H192.948ZM353.532 78.5105H353.371L353.322 78.6632L314.456 198.829L314.455 198.832C312.874 203.97 311.296 211.455 309.719 221.282H308.898C306.934 211.464 305.351 203.969 303.373 198.823C303.372 198.821 303.372 198.82 303.371 198.818L264.51 78.6632L264.46 78.5105H264.3H206.001H205.686L205.794 78.8067L276.783 273.134L276.836 273.279H276.99H337.668H337.822L337.875 273.134L408.865 78.8067L408.973 78.5105H408.657H353.532ZM608.633 208.852L608.682 208.591H608.416H558.05H557.887L557.839 208.747C556.263 213.869 553.112 219.775 547.108 224.401C541.106 229.026 532.232 232.386 519.184 232.386C506.538 232.386 495.888 228.633 487.905 221.192C479.966 213.792 474.644 202.724 472.639 188.013H609.209H609.43V187.792V177.481C609.43 147.698 601.19 122.458 585.53 104.661C569.867 86.8599 546.802 76.5275 517.201 76.5275C460.761 76.5275 419.817 117.478 419.817 176.291C419.817 205.29 429.153 230.035 445.904 247.532C462.657 265.03 486.81 275.262 516.408 275.262C545.798 275.262 567.266 267.12 582.184 254.738C597.101 242.356 605.452 225.75 608.633 208.852ZM761.846 76.5275C732.346 76.5275 712.939 88.5976 701.35 106.589L699.802 78.7188L699.79 78.5105H699.582H647.232H647.012V78.7311V273.059V273.279H647.232H701.565H701.785V273.059V164.394C701.785 152.345 705.636 142.29 712.431 135.249C719.226 128.209 728.981 124.163 740.827 124.163C752.277 124.163 760.835 127.911 766.535 134.693C772.241 141.48 775.109 151.337 775.109 163.601V273.059V273.279H775.33H829.662H829.883V273.059V151.306C829.883 129.456 823.924 110.76 812.429 97.5235C800.93 84.2826 783.912 76.5275 761.846 76.5275ZM998.141 225.46L998.13 225.156L997.844 225.261C990.33 228.03 982.82 229.61 974.522 229.61C962.062 229.61 953.503 226.545 948.056 221.147C942.61 215.75 940.239 207.984 940.239 198.5V122.18H997.921H998.141V121.959V78.7311V78.5105H997.921H940.239V23.6055V23.3849H940.019H888.859H888.638V23.6055V78.5105H857.132H856.911V78.7311V121.959V122.18H857.132H885.466V200.88C885.466 222.939 892.621 241.541 906.255 254.628C919.889 267.714 939.976 275.262 965.797 275.262C980.094 275.262 992.417 272.88 999.587 270.092L999.733 270.035L999.727 269.878L998.141 225.46ZM1137.88 138.236L1137.89 138.44H1138.1H1185.29H1185.52L1185.51 138.217C1185.31 118.925 1178.25 103.491 1165.01 92.8856C1151.77 82.2849 1132.38 76.5275 1107.56 76.5275C1081.95 76.5275 1061.18 81.9859 1046.81 91.9345C1032.42 101.889 1024.45 116.332 1024.45 134.253C1024.45 153.945 1031.39 166.872 1041.82 175.741C1052.23 184.599 1066.11 189.393 1079.94 192.865C1085.19 194.179 1090.43 195.306 1095.48 196.391C1097.09 196.739 1098.69 197.083 1100.27 197.427C1106.75 198.846 1112.79 200.275 1117.96 202.055C1123.14 203.836 1127.43 205.961 1130.42 208.762C1133.4 211.555 1135.1 215.024 1135.1 219.519L1135.1 219.527C1135.2 222.269 1134.66 224.731 1133.45 226.885C1132.24 229.038 1130.35 230.896 1127.73 232.416C1122.47 235.461 1114.29 237.145 1102.8 237.145C1090.93 237.145 1082.35 234.967 1076.61 230.841C1070.87 226.723 1067.92 220.642 1067.33 212.761L1067.31 212.559L1067.11 212.557L1020.71 212.16L1020.49 212.158L1020.49 212.383C1020.69 232.664 1027.75 248.398 1041.64 259.056C1055.53 269.706 1076.21 275.262 1103.6 275.262C1129.6 275.262 1150.86 270.003 1165.59 260.204C1180.32 250.4 1188.49 236.054 1188.29 217.931C1188.29 197.648 1181.35 184.374 1170.92 175.332C1160.51 166.298 1146.64 161.505 1132.8 158.132C1127.21 156.77 1121.62 155.639 1116.27 154.554C1114.99 154.295 1113.72 154.039 1112.47 153.783C1105.99 152.454 1099.95 151.13 1094.78 149.461C1089.6 147.791 1085.31 145.782 1082.32 143.096C1079.34 140.418 1077.64 137.061 1077.64 132.667C1077.64 127.186 1079.89 122.696 1084.68 119.566C1089.49 116.427 1096.87 114.644 1107.16 114.644C1116.66 114.644 1124.04 116.622 1129.19 120.548C1134.34 124.469 1137.29 130.354 1137.88 138.236ZM517.598 117.421C528.664 117.421 537.925 120.285 544.864 126.584C551.761 132.846 556.392 142.527 558.195 156.242H473.447C476.04 142.932 481.647 133.252 489.284 126.888C496.971 120.482 506.734 117.421 517.598 117.421Z" stroke="white" stroke-opacity="0.5" stroke-width="0.441119"/>
</svg>
