<svg width="1344" height="215" viewBox="0 0 1344 215" fill="none" xmlns="http://www.w3.org/2000/svg">
<path d="M263.537 120.278V4.46043C263.537 3.88934 263.708 3.43246 264.051 3.0898C264.508 2.63293 265.022 2.40449 265.593 2.40449H283.24C284.725 2.40449 285.467 3.0898 285.467 4.46043V51.5755H334.638V4.46043C334.638 3.88934 334.809 3.43246 335.152 3.0898C335.609 2.63293 336.123 2.40449 336.694 2.40449H354.512C355.083 2.40449 355.54 2.63293 355.883 3.0898C356.34 3.43246 356.568 3.88934 356.568 4.46043V120.278C356.568 120.849 356.34 121.363 355.883 121.82C355.54 122.162 355.083 122.334 354.512 122.334H336.694C336.123 122.334 335.609 122.162 335.152 121.82C334.809 121.363 334.638 120.849 334.638 120.278V73.3341H285.467V120.278C285.467 121.648 284.725 122.334 283.24 122.334H265.593C265.022 122.334 264.508 122.162 264.051 121.82C263.708 121.363 263.537 120.849 263.537 120.278Z" fill="white"/>
<path d="M370.193 119.935L458.255 5.14574C459.74 3.31824 461.624 2.40449 463.909 2.40449H480.185C481.555 2.40449 482.241 3.0898 482.241 4.46043V120.278C482.241 121.648 481.555 122.334 480.185 122.334H463.909C461.624 122.334 459.74 121.42 458.255 119.593L428.615 80.8725L398.804 119.593C397.319 121.42 395.435 122.334 393.15 122.334H371.392C370.821 122.334 370.364 122.105 370.021 121.648C369.679 121.077 369.736 120.506 370.193 119.935ZM442.835 62.3691L460.482 85.327V39.4112L442.835 62.3691Z" fill="white"/>
<path d="M502.179 61.8552C502.179 53.0603 503.778 44.8937 506.976 37.3553C510.288 29.8169 514.686 23.2493 520.168 17.6527C525.765 12.056 532.333 7.71565 539.871 4.63175C547.409 1.43364 555.519 -0.108309 564.2 0.0059077C573.451 0.120125 581.96 2.00473 589.727 5.65972C597.608 9.3147 604.404 14.3403 610.115 20.7365C610.458 21.1934 610.572 21.7074 610.458 22.2785C610.458 22.8496 610.23 23.3065 609.773 23.6491L596.238 35.1281C595.781 35.4707 595.267 35.642 594.696 35.642C594.125 35.5278 593.668 35.2423 593.325 34.7854C589.556 30.4451 585.101 27.0186 579.962 24.5057C574.822 21.8787 569.282 20.6223 563.343 20.7365C557.975 20.8508 552.892 22.0501 548.095 24.3344C543.298 26.5046 539.129 29.5314 535.588 33.4148C532.047 37.184 529.249 41.5814 527.193 46.607C525.137 51.6326 524.109 57.0009 524.109 62.7118C524.109 68.4227 525.194 73.791 527.364 78.8166C529.534 83.8422 532.447 88.2396 536.102 92.0088C539.757 95.778 543.983 98.7477 548.78 100.918C553.577 102.974 558.717 104.002 564.2 104.002C569.91 103.888 575.279 102.574 580.304 100.061C585.33 97.5484 589.67 94.1218 593.325 89.7815C593.668 89.3247 594.125 89.0962 594.696 89.0962C595.267 88.982 595.781 89.1534 596.238 89.6102L609.773 101.089C610.23 101.432 610.458 101.889 610.458 102.46C610.572 103.031 610.458 103.545 610.115 104.002C604.29 110.512 597.38 115.652 589.385 119.421C581.389 123.076 572.652 124.847 563.172 124.732C554.605 124.732 546.553 123.133 539.014 119.935C531.59 116.623 525.137 112.168 519.654 106.572C514.172 100.861 509.889 94.179 506.805 86.5263C503.721 78.8737 502.179 70.65 502.179 61.8552Z" fill="white"/>
<path d="M658.566 61.1699L701.569 5.14574C703.054 3.31824 704.939 2.40449 707.223 2.40449H728.982C729.667 2.40449 730.124 2.69004 730.352 3.26113C730.695 3.718 730.695 4.23199 730.352 4.80308L686.15 62.3691L730.181 119.935C730.638 120.506 730.695 121.077 730.352 121.648C730.124 122.105 729.667 122.334 728.982 122.334H707.223C704.939 122.334 703.054 121.42 701.569 119.593L658.566 63.7398C657.995 62.826 657.995 61.9694 658.566 61.1699ZM629.783 4.46043C629.783 3.88934 629.954 3.43246 630.297 3.0898C630.754 2.63293 631.268 2.40449 631.839 2.40449H649.486C650.971 2.40449 651.713 3.0898 651.713 4.46043V120.278C651.713 121.648 650.971 122.334 649.486 122.334H631.839C631.268 122.334 630.754 122.162 630.297 121.82C629.954 121.363 629.783 120.849 629.783 120.278V4.46043Z" fill="white"/>
<path d="M740.635 37.5266C740.635 32.1584 741.72 27.1899 743.89 22.6211C746.174 18.0524 749.201 14.1119 752.97 10.7995C756.854 7.48722 761.308 4.86019 766.334 2.91848C771.474 0.976765 776.899 0.0059077 782.61 0.0059077C791.519 0.0059077 799.229 1.60496 805.739 4.80308C812.364 7.88698 817.332 11.4849 820.645 15.5967C821.444 16.6247 821.387 17.5384 820.473 18.338L808.652 30.6735C808.195 31.1304 807.624 31.3589 806.939 31.3589C806.367 31.3589 805.853 31.0733 805.397 30.5022C804.369 29.36 803.055 28.2178 801.456 27.0757C799.971 25.9335 798.201 24.9055 796.145 23.9918C794.203 22.9638 792.09 22.1643 789.806 21.5932C787.521 21.0221 785.18 20.7365 782.781 20.7365C779.926 20.7365 777.299 21.1934 774.9 22.1072C772.616 22.9067 770.674 23.9918 769.075 25.3624C767.476 26.733 766.22 28.3321 765.306 30.1596C764.392 31.9871 763.935 33.9288 763.935 35.9847C763.935 39.297 765.02 42.1525 767.191 44.5511C769.361 46.9497 772.616 48.6058 776.956 49.5196L793.746 52.7748C799.229 53.8028 804.026 55.4589 808.138 57.7433C812.364 59.9135 815.848 62.5405 818.589 65.6244C821.444 68.7083 823.614 72.1919 825.099 76.0754C826.584 79.8446 827.327 83.8422 827.327 88.0683C827.327 92.637 826.356 97.1486 824.414 101.603C822.586 106.058 819.788 110.055 816.019 113.596C812.364 117.137 807.852 119.992 802.484 122.162C797.116 124.218 790.948 125.246 783.981 125.246C779.069 125.246 774.443 124.732 770.103 123.704C765.877 122.676 761.994 121.363 758.453 119.764C755.026 118.051 751.999 116.223 749.372 114.281C746.745 112.225 744.575 110.227 742.862 108.285C742.063 107.485 742.063 106.572 742.862 105.544L753.656 91.6662C753.998 91.0951 754.455 90.8095 755.026 90.8095C755.712 90.6953 756.283 90.8666 756.74 91.3235C758.339 92.8083 760.109 94.3503 762.051 95.9493C763.992 97.4342 766.105 98.8048 768.39 100.061C770.674 101.318 773.13 102.346 775.757 103.145C778.384 103.945 781.182 104.344 784.152 104.344C790.434 104.344 795.231 102.974 798.543 100.233C801.856 97.4913 803.512 93.9505 803.512 89.6102C803.512 86.1837 802.256 83.214 799.743 80.7012C797.344 78.0742 793.746 76.3038 788.949 75.39L772.159 71.9635C762.565 70.0218 754.912 66.0812 749.201 60.1419C743.49 54.2025 740.635 46.6641 740.635 37.5266Z" fill="white"/>
<path d="M844.779 119.935V4.11777C844.779 3.54668 844.95 3.0898 845.293 2.74715C845.75 2.29028 846.264 2.06184 846.835 2.06184H937.296C937.867 2.06184 938.324 2.29028 938.667 2.74715C939.123 3.0898 939.352 3.54668 939.352 4.11777V29.3029C939.352 30.902 938.838 32.3297 937.81 33.5861L912.796 66.3097C911.311 68.1372 909.427 69.0509 907.142 69.0509H885.384C884.698 69.0509 884.184 68.8225 883.842 68.3656C883.613 67.7945 883.728 67.2234 884.184 66.6523L917.079 23.8204H866.709V119.935C866.709 121.306 865.967 121.991 864.482 121.991H846.835C846.264 121.991 845.75 121.82 845.293 121.477C844.95 121.02 844.779 120.506 844.779 119.935Z" fill="white"/>
<path d="M957.213 4.11777C957.213 3.54668 957.384 3.0898 957.727 2.74715C958.184 2.29028 958.698 2.06184 959.269 2.06184H1049.73C1050.3 2.06184 1050.76 2.29028 1051.1 2.74715C1051.56 3.0898 1051.79 3.54668 1051.79 4.11777V29.3029C1051.79 30.902 1051.27 32.3297 1050.24 33.5861L1023.17 69.0509L1061.89 119.593C1062.24 120.164 1062.24 120.735 1061.89 121.306C1061.67 121.763 1061.27 121.991 1060.69 121.991H1038.94C1036.65 121.991 1034.77 121.077 1033.28 119.25L995.762 70.4215C994.962 69.5078 994.962 68.6512 995.762 67.8516L1029.51 23.8204H979.143V119.935C979.143 121.306 978.4 121.991 976.916 121.991H959.269C958.698 121.991 958.184 121.82 957.727 121.477C957.384 121.02 957.213 120.506 957.213 119.935V4.11777Z" fill="white"/>
<path d="M1078.06 2.40449H1095.71C1097.19 2.40449 1097.93 3.0898 1097.93 4.46043V120.278C1097.93 121.648 1097.19 122.334 1095.71 122.334H1078.06C1077.49 122.334 1076.98 122.162 1076.52 121.82C1076.18 121.363 1076 120.849 1076 120.278V4.46043C1076 3.88934 1076.18 3.43246 1076.52 3.0898C1076.98 2.63293 1077.49 2.40449 1078.06 2.40449Z" fill="white"/>
<path d="M1122.68 120.278V4.46043C1122.68 3.88934 1122.86 3.43246 1123.2 3.0898C1123.66 2.63293 1124.17 2.40449 1124.74 2.40449H1141.02C1143.3 2.40449 1145.19 3.31824 1146.67 5.14574L1208.35 85.327V4.46043C1208.35 3.0898 1209.03 2.40449 1210.4 2.40449H1228.05C1229.42 2.40449 1230.11 3.0898 1230.11 4.46043V120.278C1230.11 121.648 1229.42 122.334 1228.05 122.334H1211.77C1209.49 122.334 1207.61 121.42 1206.12 119.593L1144.61 39.4112V120.278C1144.61 121.648 1143.87 122.334 1142.39 122.334H1124.74C1124.17 122.334 1123.66 122.162 1123.2 121.82C1122.86 121.363 1122.68 120.849 1122.68 120.278Z" fill="white"/>
<path d="M1248.86 4.11777C1248.86 3.54668 1249.04 3.0898 1249.38 2.74715C1249.84 2.29028 1250.35 2.06184 1250.92 2.06184H1325.28C1327.56 2.06184 1329.45 2.97559 1330.93 4.80308L1343.61 21.4219C1344.07 21.9929 1344.12 22.564 1343.78 23.1351C1343.55 23.592 1343.09 23.8204 1342.41 23.8204H1304.2V119.935C1304.2 121.306 1303.52 121.991 1302.15 121.991H1284.5C1283.13 121.991 1282.44 121.306 1282.44 119.935V23.8204H1250.92C1250.35 23.8204 1249.84 23.6491 1249.38 23.3065C1249.04 22.8496 1248.86 22.3356 1248.86 21.7645V4.11777Z" fill="white"/>
<path d="M1120.74 160.363H1128.74C1129 160.363 1129.23 160.466 1129.44 160.673C1129.65 160.829 1129.75 161.036 1129.75 161.294V197.934L1157.62 161.605C1158.29 160.777 1159.14 160.363 1160.18 160.363H1170.04C1170.35 160.363 1170.55 160.492 1170.66 160.751C1170.81 161.01 1170.81 161.243 1170.66 161.45L1130.68 213.459C1130.01 214.287 1129.15 214.701 1128.12 214.701H1120.74C1120.49 214.701 1120.25 214.623 1120.05 214.468C1119.89 214.261 1119.81 214.028 1119.81 213.769V161.294C1119.81 161.036 1119.89 160.829 1120.05 160.673C1120.25 160.466 1120.49 160.363 1120.74 160.363Z" fill="#A848FF"/>
<path d="M1198.58 213.925V206.007C1198.58 205.748 1198.65 205.541 1198.81 205.386C1199.02 205.179 1199.25 205.075 1199.51 205.075H1221.4L1208.51 188.308C1208.2 187.894 1208.2 187.506 1208.51 187.144L1221.4 170.454H1199.51C1199.25 170.454 1199.02 170.351 1198.81 170.144C1198.65 169.937 1198.58 169.704 1198.58 169.445V161.527C1198.58 161.268 1198.65 161.036 1198.81 160.829C1199.02 160.622 1199.25 160.518 1199.51 160.518H1230.56C1231.18 160.518 1231.49 160.854 1231.49 161.527V172.861C1231.49 173.533 1231.28 174.206 1230.87 174.879L1220.93 187.765L1230.87 200.651C1231.28 201.22 1231.49 201.867 1231.49 202.591V213.925C1231.49 214.597 1231.18 214.934 1230.56 214.934H1199.51C1199.25 214.934 1199.02 214.83 1198.81 214.623C1198.65 214.416 1198.58 214.183 1198.58 213.925Z" fill="#A848FF"/>
<path d="M1243.55 204.377H1252.01C1252.68 204.377 1253.02 204.713 1253.02 205.386V213.925C1253.02 214.597 1252.68 214.934 1252.01 214.934H1243.55C1242.88 214.934 1242.54 214.597 1242.54 213.925V205.386C1242.54 204.713 1242.88 204.377 1243.55 204.377Z" fill="#A848FF"/>
<path d="M1264.22 213.925V161.527C1264.22 161.268 1264.3 161.036 1264.46 160.829C1264.66 160.622 1264.9 160.518 1265.16 160.518H1303.35C1303.97 160.518 1304.28 160.854 1304.28 161.527V213.925C1304.28 214.597 1303.97 214.934 1303.35 214.934H1265.16C1264.9 214.934 1264.66 214.83 1264.46 214.623C1264.3 214.416 1264.22 214.183 1264.22 213.925ZM1274.16 170.377V204.998H1294.34V170.377H1274.16Z" fill="#A848FF"/>
<path d="M103.078 73.4315L4.17185 139.615C2.39055 140.807 0 139.531 0 137.387V102.303C0 101.409 0.446363 100.573 1.18998 100.075L41.007 73.4315C42.5936 72.3698 42.5936 70.0371 41.007 68.9754L1.18997 42.3316C0.446363 41.834 0 40.9983 0 40.1035V5.0197C0 2.87638 2.39055 1.59965 4.17185 2.79161L103.078 68.9753C104.665 70.0371 104.665 72.3698 103.078 73.4315Z" fill="white"/>
<path d="M65.7976 145.959L164.704 212.142C166.485 213.334 168.876 212.057 168.876 209.914V174.83C168.876 173.936 168.43 173.1 167.686 172.602L127.869 145.959C126.282 144.897 126.282 142.564 127.869 141.502L167.686 114.859C168.43 114.361 168.876 113.525 168.876 112.631V77.5467C168.876 75.4034 166.485 74.1266 164.704 75.3186L65.7976 141.502C64.2109 142.564 64.2109 144.897 65.7976 145.959Z" fill="white"/>
<path d="M29.6434 165.629L1.19597 184.554C0.448899 185.051 0 185.889 0 186.786V212.252C0 213.733 1.20029 214.933 2.68092 214.933H97.8558C100.51 214.933 101.55 211.49 99.3407 210.02L32.6133 165.629C31.7138 165.03 30.5429 165.03 29.6434 165.629Z" fill="#A848FF"/>
<path d="M139.434 49.4056L167.789 30.4858C168.534 29.9885 168.981 29.1517 168.981 28.2557V2.78696C168.981 1.30633 167.781 0.106041 166.301 0.106041H71.4213C68.7694 0.106041 67.7273 3.54507 69.9333 5.01701L136.458 49.4056C137.359 50.0067 138.533 50.0067 139.434 49.4056Z" fill="#A848FF"/>
</svg>
