<svg width="25" height="25" viewBox="0 0 25 25" fill="none" xmlns="http://www.w3.org/2000/svg">
<path d="M7.36418 16.0842C7.36418 15.669 7.07609 15.4214 6.56778 15.4214C6.36022 15.4214 6.21964 15.4419 6.14612 15.4615V16.7935C6.23318 16.8131 6.3402 16.8197 6.48772 16.8197C7.02952 16.8197 7.36418 16.546 7.36418 16.0842Z" fill="white"/>
<path d="M10.5108 15.4353C10.2832 15.4353 10.1361 15.455 10.0491 15.4753V18.4255C10.1361 18.4459 10.2767 18.4459 10.4038 18.4459C11.3272 18.4525 11.9295 17.9442 11.9295 16.8671C11.936 15.9305 11.3872 15.4353 10.5108 15.4353Z" fill="white"/>
<path d="M16.3571 0H6.31612C4.84922 0 3.65532 1.19473 3.65532 2.66079V12.4999H3.39544C2.80339 12.4999 2.32324 12.9796 2.32324 13.5722V20.0747C2.32324 20.6672 2.80334 21.1468 3.39544 21.1468H3.65532V22.3392C3.65532 23.8068 4.84922 24.9999 6.31612 24.9999H20.0166C21.4826 24.9999 22.6767 23.8068 22.6767 22.3392V6.29739L16.3571 0ZM5.13607 14.7457C5.45029 14.6926 5.89197 14.6525 6.51424 14.6525C7.14311 14.6525 7.59132 14.7726 7.89247 15.0137C8.18015 15.2409 8.37428 15.616 8.37428 16.0573C8.37428 16.4986 8.22718 16.8737 7.95952 17.1279C7.61138 17.4556 7.09654 17.6027 6.49428 17.6027C6.36024 17.6027 6.2401 17.596 6.14615 17.583V19.1954H5.13607V14.7457ZM20.0166 23.3704H6.31612C5.74813 23.3704 5.28561 22.9079 5.28561 22.3392V21.1468H18.0573C18.6495 21.1468 19.1296 20.6672 19.1296 20.0747V13.5722C19.1296 12.9796 18.6495 12.4999 18.0573 12.4999H5.28561V2.66079C5.28561 2.09363 5.74818 1.63111 6.31612 1.63111L15.7475 1.62126V5.10744C15.7475 6.12571 16.5737 6.9527 17.5928 6.9527L21.0079 6.9429L21.0463 22.3391C21.0463 22.9079 20.5846 23.3704 20.0166 23.3704ZM9.0256 19.175V14.7457C9.40023 14.686 9.88852 14.6525 10.4038 14.6525C11.2602 14.6525 11.8156 14.8062 12.2507 15.1338C12.719 15.482 13.0131 16.0369 13.0131 16.8336C13.0131 17.6966 12.6989 18.2924 12.2637 18.66C11.7889 19.0547 11.0661 19.2419 10.1831 19.2419C9.65436 19.2419 9.27973 19.2084 9.0256 19.175ZM16.3278 16.5526V17.382H14.7084V19.1954H13.6849V14.686H16.4413V15.522H14.7084V16.5526H16.3278Z" fill="white"/>
</svg>
