<svg width="132" height="96" viewBox="0 0 132 96" fill="none" xmlns="http://www.w3.org/2000/svg">
<g clip-path="url(#clip0)">
<path d="M132 18.5943V77.5202C132 87.7731 123.619 96.1145 113.319 96.1145H18.6811C8.38148 96.1145 0 87.7731 0 77.5202V18.5943C0 8.34138 8.38148 0 18.6811 0H113.319C123.619 0 132 8.34138 132 18.5943V18.5943Z" fill="#6AA9FF"/>
<path d="M132 18.5943V77.5202C132 87.7731 123.619 96.1145 113.319 96.1145H66V0H113.319C123.619 0 132 8.34138 132 18.5943V18.5943Z" fill="#4987EA"/>
<path d="M37.6819 71.9763L17.4694 51.8605C15.9591 50.3575 15.9591 47.9208 17.4694 46.4177L39.856 24.1382C41.366 22.6352 43.8147 22.6352 45.325 24.1382C46.8352 25.6412 46.8352 28.078 45.325 29.581L25.673 49.139L43.1508 66.5335C44.6611 68.0366 44.6611 70.4733 43.1508 71.9763C41.6408 73.4794 39.1921 73.4796 37.6819 71.9763Z" fill="#F0F7FF"/>
<path d="M86.6749 71.9763C85.1647 70.4733 85.1647 68.0366 86.6749 66.5335L106.327 46.9753L88.8491 29.5808C87.3388 28.0777 87.3388 25.641 88.8491 24.138C90.3591 22.6349 92.8078 22.6349 94.318 24.138L114.531 44.2537C116.041 45.7568 116.041 48.1935 114.531 49.6966L92.1439 71.9761C90.6342 73.4794 88.1852 73.4796 86.6749 71.9763V71.9763Z" fill="#DFE7F4"/>
<path d="M79.8032 20.5263L65.9999 59.4237L59.3535 78.1514C58.6337 80.1753 56.4033 81.2055 54.419 80.4991C52.4054 79.791 51.3484 77.5921 52.06 75.5882L65.9999 36.306L72.5097 17.9631C73.2212 15.9592 75.4307 14.9073 77.4442 15.6154C79.4577 16.3236 80.5147 18.5225 79.8032 20.5263V20.5263Z" fill="#F0F7FF"/>
<path d="M79.8033 20.5263L66 59.4237V36.306L72.5098 17.9631C73.2213 15.9592 75.4308 14.9073 77.4443 15.6154C79.4578 16.3236 80.5148 18.5225 79.8033 20.5263V20.5263Z" fill="#DFE7F4"/>
</g>
<defs>
<clipPath id="clip0">
<rect width="132" height="96" fill="white"/>
</clipPath>
</defs>
</svg>
