<svg width="96" height="96" viewBox="0 0 96 96" fill="none" xmlns="http://www.w3.org/2000/svg">
<g clip-path="url(#clip0)">
<path d="M30.9375 96H2.81255C1.71117 96 0.711048 95.3571 0.253923 94.3552C-0.203389 93.3532 -0.0337018 92.1767 0.687986 91.3446L6.75136 84.3547C2.38111 78.8874 4.8171e-05 72.1282 4.8171e-05 65.0625C4.8171e-05 48.0036 13.8786 34.125 30.9375 34.125C47.9965 34.125 61.875 48.0036 61.875 65.0625C61.875 82.1214 47.9967 96 30.9375 96Z" fill="#BEEBFA"/>
<path d="M30.9375 34.125V96C47.9964 96 61.875 82.1214 61.875 65.0625C61.875 48.0036 47.9966 34.125 30.9375 34.125Z" fill="#9EE2F8"/>
<path d="M40.3125 62.25H21.5625C20.0092 62.25 18.75 60.9908 18.75 59.4375C18.75 57.8842 20.0092 56.625 21.5625 56.625H40.3125C41.8657 56.625 43.125 57.8842 43.125 59.4375C43.125 60.9908 41.8657 62.25 40.3125 62.25Z" fill="#9EE2F8"/>
<path d="M40.3125 73.5H21.5625C20.0092 73.5 18.75 72.2408 18.75 70.6875C18.75 69.1342 20.0092 67.875 21.5625 67.875H40.3125C41.8657 67.875 43.125 69.1342 43.125 70.6875C43.125 72.2408 41.8657 73.5 40.3125 73.5Z" fill="#9EE2F8"/>
<path d="M40.3125 67.875H30.9375V73.5H40.3125C41.8658 73.5 43.125 72.2408 43.125 70.6875C43.125 69.1342 41.8658 67.875 40.3125 67.875Z" fill="#87C0ED"/>
<path d="M40.3125 56.625H30.9375V62.25H40.3125C41.8658 62.25 43.125 60.9908 43.125 59.4375C43.125 57.8842 41.8658 56.625 40.3125 56.625Z" fill="#87C0ED"/>
<path d="M93.1875 61.875H65.0625C48.0036 61.875 34.125 47.9964 34.125 30.9375C34.125 13.8786 48.0034 0 65.0625 0C82.1216 0 96 13.8786 96 30.9375C96 38.0032 93.6189 44.7624 89.2487 50.2297L95.3121 57.2196C96.0337 58.0517 96.2034 59.2282 95.7461 60.2302C95.2888 61.2321 94.2889 61.875 93.1875 61.875Z" fill="#999FED"/>
<path d="M95.3121 57.2196L89.2487 50.2297C93.619 44.7624 96 38.0032 96 30.9375C96 13.8786 82.1214 0 65.0625 0V61.875H93.1875C94.2889 61.875 95.289 61.2321 95.7461 60.2302C96.2034 59.2282 96.0338 58.0515 95.3121 57.2196Z" fill="#7C84E8"/>
<path d="M65.0625 50.0625C66.6158 50.0625 67.875 48.8033 67.875 47.25C67.875 45.6967 66.6158 44.4375 65.0625 44.4375C63.5092 44.4375 62.25 45.6967 62.25 47.25C62.25 48.8033 63.5092 50.0625 65.0625 50.0625Z" fill="#FFF79F"/>
<path d="M65.0625 41.5474C63.5093 41.5474 62.25 40.2881 62.25 38.7349V30.3928C62.25 28.8395 63.5093 27.5803 65.0625 27.5803C66.4918 27.5803 67.822 27.0082 68.8082 25.9697C69.7933 24.932 70.2949 23.5708 70.2205 22.1366C70.0812 19.4514 67.8628 17.3053 65.1705 17.2511C65.1353 17.2504 65.1 17.25 65.0648 17.25C62.4932 17.25 60.303 19.142 59.9473 21.6913C59.9141 21.9287 59.8975 22.1722 59.8975 22.4152C59.8975 23.9685 58.6382 25.2277 57.085 25.2277C55.5317 25.2277 54.2725 23.9685 54.2725 22.4152C54.2725 21.9131 54.3075 21.4082 54.3763 20.9139C55.1305 15.5096 59.8258 11.5153 65.2838 11.6272C70.9105 11.7407 75.5464 16.2289 75.838 21.845C75.9932 24.8349 74.9453 27.6754 72.8875 29.8427C71.517 31.286 69.7712 32.3137 67.8752 32.8286V38.7349C67.875 40.2881 66.6158 41.5474 65.0625 41.5474V41.5474Z" fill="#FFF79F"/>
<path d="M65.0625 44.4375V50.0625C66.6158 50.0625 67.875 48.8033 67.875 47.25C67.875 45.6967 66.6158 44.4375 65.0625 44.4375Z" fill="#FFDE55"/>
<path d="M75.8379 21.8451C75.5464 16.2289 70.9104 11.7407 65.2837 11.6273C65.2097 11.6258 65.1364 11.6278 65.0625 11.6278V17.25H65.0647C65.1 17.25 65.1351 17.2504 65.1705 17.2511C67.8628 17.3053 70.0811 19.4513 70.2204 22.1366C70.2949 23.5708 69.7933 24.9321 68.8082 25.9697C67.8221 27.0083 66.492 27.5803 65.0625 27.5803V41.5474C66.6158 41.5474 67.875 40.2881 67.875 38.7349V32.8286C69.771 32.3138 71.517 31.2861 72.8872 29.8427C74.9452 27.6754 75.993 24.8349 75.8379 21.8451V21.8451Z" fill="#FFDE55"/>
</g>
<defs>
<clipPath id="clip0">
<rect width="96" height="96" fill="white"/>
</clipPath>
</defs>
</svg>
