<svg width="37" height="37" viewBox="0 0 37 37" fill="none" xmlns="http://www.w3.org/2000/svg">
<g clip-path="url(#clip0)">
<path d="M11.5631 30.5684H6.50447V14.2363H11.5631V30.5684ZM12.0678 9.03292C12.0678 7.39763 10.741 6.07031 9.1066 6.07031C7.46594 6.07031 6.14258 7.39763 6.14258 9.03292C6.14258 10.6688 7.46594 11.9961 9.1066 11.9961C10.741 11.9961 12.0678 10.6688 12.0678 9.03292ZM30.4961 21.5831C30.4961 17.1989 29.5699 13.9473 24.4484 13.9473C21.9874 13.9473 20.3354 15.178 19.661 16.4579H19.6562V14.2363H14.7422V30.5684H19.6562V22.4594C19.6562 20.3357 20.1968 18.2784 22.8292 18.2784C25.4256 18.2784 25.5098 20.7069 25.5098 22.5943V30.5684H30.4961V21.5831ZM37 32.6641V4.33594C37 1.94496 35.055 0 32.6641 0H4.33594C1.94496 0 0 1.94496 0 4.33594V32.6641C0 35.055 1.94496 37 4.33594 37H32.6641C35.055 37 37 35.055 37 32.6641V32.6641ZM32.6641 2.89062C33.461 2.89062 34.1094 3.53904 34.1094 4.33594V32.6641C34.1094 33.461 33.461 34.1094 32.6641 34.1094H4.33594C3.53904 34.1094 2.89062 33.461 2.89062 32.6641V4.33594C2.89062 3.53904 3.53904 2.89062 4.33594 2.89062H32.6641Z" fill="white"/>
</g>
<defs>
<clipPath id="clip0">
<rect width="37" height="37" fill="white"/>
</clipPath>
</defs>
</svg>
